<svg width="24" height="24" viewBox="0 0 24 24" fill="none" xmlns="http://www.w3.org/2000/svg">
<g clip-path="url(#clip0_461_2002)">
<path d="M21 25H19V19.957C18.9992 19.173 18.6874 18.4213 18.133 17.867C17.5787 17.3126 16.827 17.0008 16.043 17H7.957C7.173 17.0008 6.42134 17.3126 5.86696 17.867C5.31259 18.4213 5.00079 19.173 5 19.957V25H3V19.957C3.00159 18.6428 3.52435 17.3829 4.45363 16.4536C5.3829 15.5244 6.64281 15.0016 7.957 15H16.043C17.3572 15.0016 18.6171 15.5244 19.5464 16.4536C20.4756 17.3829 20.9984 18.6428 21 19.957V25Z" fill="#253D4E"/>
<path d="M12 13C10.8133 13 9.65328 12.6481 8.66658 11.9888C7.67989 11.3295 6.91085 10.3925 6.45673 9.2961C6.0026 8.19975 5.88378 6.99335 6.11529 5.82946C6.3468 4.66558 6.91825 3.59648 7.75736 2.75736C8.59648 1.91825 9.66558 1.3468 10.8295 1.11529C11.9933 0.88378 13.1997 1.0026 14.2961 1.45673C15.3925 1.91085 16.3295 2.67989 16.9888 3.66658C17.6481 4.65328 18 5.81331 18 7C17.9984 8.59081 17.3658 10.116 16.2409 11.2409C15.116 12.3658 13.5908 12.9984 12 13ZM12 3C11.2089 3 10.4355 3.2346 9.77772 3.67412C9.11993 4.11365 8.60723 4.73836 8.30448 5.46927C8.00173 6.20017 7.92252 7.00444 8.07686 7.78036C8.2312 8.55629 8.61217 9.26902 9.17158 9.82843C9.73099 10.3878 10.4437 10.7688 11.2196 10.9231C11.9956 11.0775 12.7998 10.9983 13.5307 10.6955C14.2616 10.3928 14.8864 9.88008 15.3259 9.22228C15.7654 8.56449 16 7.79113 16 7C16 5.93914 15.5786 4.92172 14.8284 4.17158C14.0783 3.42143 13.0609 3 12 3Z" fill="#253D4E"/>
</g>
<defs>
<clipPath id="clip0_461_2002">
<rect width="24" height="24" fill="white"/>
</clipPath>
</defs>
</svg>
