<svg width="24" height="25" viewBox="0 0 24 25" fill="none" xmlns="http://www.w3.org/2000/svg">
<g id="material-symbols:border-color-rounded" clip-path="url(#clip0_456_18567)">
<path id="Vector" d="M4 24.8704C3.45 24.8704 2.979 24.6744 2.587 24.2824C2.195 23.8904 1.99934 23.4197 2 22.8704C2 22.3204 2.196 21.8494 2.588 21.4574C2.98 21.0654 3.45067 20.8697 4 20.8704H20C20.55 20.8704 21.021 21.0664 21.413 21.4584C21.805 21.8504 22.0007 22.321 22 22.8704C22 23.4204 21.804 23.8914 21.412 24.2834C21.02 24.6754 20.5493 24.871 20 24.8704H4ZM5 18.8704C4.71667 18.8704 4.479 18.7744 4.287 18.5824C4.095 18.3904 3.99934 18.153 4 17.8704V15.5454C4 15.412 4.025 15.2827 4.075 15.1574C4.125 15.032 4.2 14.9197 4.3 14.8204L13.05 6.07035L16.8 9.82035L8.05 18.5704C7.95 18.6704 7.83734 18.7454 7.712 18.7954C7.58667 18.8454 7.45767 18.8704 7.325 18.8704H5ZM17.925 8.72035L14.175 4.97035L15.975 3.17035C16.1583 2.97035 16.3917 2.87469 16.675 2.88335C16.9583 2.89202 17.1917 2.98769 17.375 3.17035L19.725 5.52035C19.9083 5.70369 20 5.93302 20 6.20835C20 6.48369 19.9083 6.72102 19.725 6.92035L17.925 8.72035Z" fill="#FF7784"/>
</g>
<defs>
<clipPath id="clip0_456_18567">
<rect width="24" height="24" fill="white" transform="translate(0 0.870117)"/>
</clipPath>
</defs>
</svg>
