<svg width="21" height="26" viewBox="0 0 21 26" fill="none" xmlns="http://www.w3.org/2000/svg">
<path d="M14.9001 4.42614C13.7001 3.35298 12.4642 2.23972 11.2132 0.923856L10.5002 0.176758L9.80021 0.924911C7.54825 3.30761 6.48427 6.96606 6.02228 9.16093C5.66866 8.58257 5.40625 7.94753 5.24529 7.28052L4.8223 5.55734L3.59232 6.77718C1.43737 8.9119 0.000392172 11.0297 0.000392172 14.4212C-0.0197338 16.8675 0.735298 19.2507 2.14556 21.1924C3.55583 23.1341 5.54047 24.5228 7.78425 25.1381C8.4603 25.3116 9.15033 25.4176 9.84521 25.4546C10.0625 25.4836 10.2812 25.4988 10.5002 25.5C10.6152 25.5 10.7272 25.4895 10.8392 25.4821C13.5633 25.3956 16.1482 24.1923 18.0453 22.1276C19.9424 20.0628 21.0023 17.2992 21 14.4233C21 9.8922 18.173 7.35966 14.9001 4.42614ZM10.7002 23.3716C10.6002 23.3716 10.5002 23.3822 10.3942 23.3811C9.49413 23.3521 8.64001 22.955 8.0123 22.2737C7.38458 21.5924 7.03243 20.6803 7.03026 19.73C7.03026 18.392 7.71025 17.7251 9.24922 16.3428C9.63721 15.9946 10.0592 15.6157 10.5032 15.182C10.8922 15.5545 11.2702 15.8922 11.6192 16.2056C13.1651 17.5901 13.9721 18.3762 13.9721 19.7269C13.9705 20.6602 13.6307 21.5576 13.0224 22.2352C12.4141 22.9128 11.5833 23.3194 10.7002 23.3716ZM15.7201 21.5028L15.7001 21.5176C15.8796 20.9406 15.9714 20.3373 15.9721 19.73C15.9721 17.34 14.4861 16.0083 12.9141 14.5996C12.3572 14.1015 11.7822 13.5865 11.2082 12.9808L10.5002 12.2348L9.79321 12.9808C9.14522 13.6636 8.51123 14.2334 7.95224 14.7357C6.38427 16.1433 5.0293 17.36 5.0293 19.73C5.03143 20.3634 5.1328 20.992 5.32929 21.5904C4.28837 20.747 3.44629 19.661 2.86883 18.4174C2.29136 17.1738 1.99413 15.8061 2.00035 14.4212C1.9839 12.5695 2.66308 10.7863 3.88932 9.46167C4.10054 9.91386 4.35093 10.3445 4.6373 10.748C4.84646 11.0458 5.13364 11.2725 5.46343 11.4002C5.79322 11.5279 6.15121 11.551 6.49327 11.4666C6.84125 11.3848 7.15956 11.1991 7.41013 10.9315C7.6607 10.6639 7.83294 10.3258 7.90624 9.95762C8.32495 7.53235 9.23054 5.22967 10.5622 3.20419C11.6172 4.25942 12.6622 5.19329 13.6051 6.03852C16.7371 8.84542 19.005 10.8736 19.005 14.4275C19.0075 15.7937 18.7125 17.1422 18.1427 18.3689C17.573 19.5957 16.7438 20.6679 15.7191 21.5028H15.7201Z" fill="#FF7784"/>
</svg>
