<svg width="18" height="18" viewBox="0 0 18 18" fill="none" xmlns="http://www.w3.org/2000/svg">
<g clip-path="url(#clip0_461_1967)">
<path d="M8.11752 8.04615H0.68457V2.83299C0.68457 2.31451 0.898146 1.81726 1.27831 1.45064C1.65848 1.08402 2.1741 0.878052 2.71174 0.878052L8.11752 0.878052V8.04615ZM2.03602 6.74286H6.76608V2.18134H2.71174C2.53253 2.18134 2.36065 2.25 2.23393 2.37221C2.10721 2.49441 2.03602 2.66016 2.03602 2.83299V6.74286Z" fill="white"/>
<path d="M16.9017 8.04615H9.46875V0.878052H14.8745C15.4122 0.878052 15.9278 1.08402 16.308 1.45064C16.6881 1.81726 16.9017 2.31451 16.9017 2.83299V8.04615ZM10.8202 6.74286H15.5503V2.83299C15.5503 2.66016 15.4791 2.49441 15.3523 2.37221C15.2256 2.25 15.0537 2.18134 14.8745 2.18134H10.8202V6.74286Z" fill="white"/>
<path d="M8.11752 16.5178H2.71174C2.1741 16.5178 1.65848 16.3119 1.27831 15.9452C0.898146 15.5786 0.68457 15.0814 0.68457 14.5629L0.68457 9.34973H8.11752V16.5178ZM2.03602 10.653V14.5629C2.03602 14.7357 2.10721 14.9015 2.23393 15.0237C2.36065 15.1459 2.53253 15.2145 2.71174 15.2145H6.76608V10.653H2.03602Z" fill="white"/>
<path d="M14.8745 16.5178H9.46875V9.34973H16.9017V14.5629C16.9017 15.0814 16.6881 15.5786 16.308 15.9452C15.9278 16.3119 15.4122 16.5178 14.8745 16.5178ZM10.8202 15.2145H14.8745C15.0537 15.2145 15.2256 15.1459 15.3523 15.0237C15.4791 14.9015 15.5503 14.7357 15.5503 14.5629V10.653H10.8202V15.2145Z" fill="white"/>
</g>
<defs>
<clipPath id="clip0_461_1967">
<rect width="16.5912" height="16.8421" fill="white" transform="translate(0.68457 0.229492)"/>
</clipPath>
</defs>
</svg>
