<svg width="17" height="18" viewBox="0 0 17 18" fill="none" xmlns="http://www.w3.org/2000/svg">
<g clip-path="url(#clip0_461_2022)">
<path d="M8.49984 18.006L8.00401 17.556C7.32047 16.95 1.35205 11.4923 1.35205 7.50001C1.35205 5.49279 2.10512 3.56777 3.44559 2.14845C4.78606 0.72913 6.60413 -0.0682373 8.49984 -0.0682373C10.3956 -0.0682373 12.2136 0.72913 13.5541 2.14845C14.8946 3.56777 15.6476 5.49279 15.6476 7.50001C15.6476 11.4923 9.67922 16.95 8.99851 17.559L8.49984 18.006ZM8.49984 1.56826C7.01456 1.57005 5.5906 2.19557 4.54035 3.30761C3.49009 4.41964 2.89932 5.92736 2.89763 7.50001C2.89763 10.008 6.56963 14.0145 8.49984 15.8483C10.4301 14.0138 14.1021 10.005 14.1021 7.50001C14.1004 5.92736 13.5096 4.41964 12.4593 3.30761C11.4091 2.19557 9.98512 1.57005 8.49984 1.56826Z" fill="#B6B6B6"/>
<path d="M8.49984 10.5C7.93946 10.5 7.39166 10.3241 6.92572 9.99441C6.45978 9.66477 6.09663 9.19623 5.88218 8.64805C5.66773 8.09987 5.61162 7.49667 5.72095 6.91473C5.83027 6.33279 6.10012 5.79824 6.49637 5.37868C6.89262 4.95912 7.39747 4.6734 7.94708 4.55765C8.4967 4.44189 9.06639 4.5013 9.58411 4.72836C10.1018 4.95543 10.5443 5.33994 10.8557 5.83329C11.167 6.32664 11.3332 6.90666 11.3332 7.5C11.3332 8.29565 11.0347 9.05871 10.5033 9.62132C9.97196 10.1839 9.25129 10.5 8.49984 10.5ZM8.49984 6C8.21965 6 7.94575 6.08797 7.71278 6.2528C7.47981 6.41762 7.29823 6.65189 7.19101 6.92598C7.08379 7.20007 7.05573 7.50167 7.11039 7.79264C7.16506 8.08361 7.29998 8.35088 7.4981 8.56066C7.69623 8.77044 7.94865 8.9133 8.22346 8.97118C8.49827 9.02906 8.78311 8.99935 9.04197 8.88582C9.30084 8.77229 9.52209 8.58003 9.67775 8.33336C9.83342 8.08668 9.91651 7.79667 9.91651 7.5C9.91651 7.10218 9.76725 6.72065 9.50157 6.43934C9.2359 6.15804 8.87556 6 8.49984 6Z" fill="#B6B6B6"/>
</g>
<defs>
<clipPath id="clip0_461_2022">
<rect width="17" height="18" fill="white"/>
</clipPath>
</defs>
</svg>
