<svg width="30" height="30" viewBox="0 0 30 30" fill="none" xmlns="http://www.w3.org/2000/svg">
<path d="M0 2.6087C0 1.91683 0.274844 1.2533 0.764069 0.764071C1.25329 0.274845 1.91683 0 2.6087 0H10.4348C11.1267 0 11.7902 0.274845 12.2794 0.764071C12.7686 1.2533 13.0435 1.91683 13.0435 2.6087V10.4348C13.0435 11.1267 12.7686 11.7902 12.2794 12.2794C11.7902 12.7686 11.1267 13.0435 10.4348 13.0435H2.6087C1.91683 13.0435 1.25329 12.7686 0.764069 12.2794C0.274844 11.7902 0 11.1267 0 10.4348V2.6087ZM0 19.5652C0 18.8733 0.274844 18.2098 0.764069 17.7206C1.25329 17.2314 1.91683 16.9565 2.6087 16.9565H10.4348C11.1267 16.9565 11.7902 17.2314 12.2794 17.7206C12.7686 18.2098 13.0435 18.8733 13.0435 19.5652V27.3913C13.0435 28.0832 12.7686 28.7467 12.2794 29.2359C11.7902 29.7252 11.1267 30 10.4348 30H2.6087C1.91683 30 1.25329 29.7252 0.764069 29.2359C0.274844 28.7467 0 28.0832 0 27.3913V19.5652ZM16.9565 2.6087C16.9565 1.91683 17.2314 1.2533 17.7206 0.764071C18.2098 0.274845 18.8733 0 19.5652 0H27.3913C28.0832 0 28.7467 0.274845 29.2359 0.764071C29.7252 1.2533 30 1.91683 30 2.6087V10.4348C30 11.1267 29.7252 11.7902 29.2359 12.2794C28.7467 12.7686 28.0832 13.0435 27.3913 13.0435H19.5652C18.8733 13.0435 18.2098 12.7686 17.7206 12.2794C17.2314 11.7902 16.9565 11.1267 16.9565 10.4348V2.6087ZM16.9565 19.5652C16.9565 18.8733 17.2314 18.2098 17.7206 17.7206C18.2098 17.2314 18.8733 16.9565 19.5652 16.9565H27.3913C28.0832 16.9565 28.7467 17.2314 29.2359 17.7206C29.7252 18.2098 30 18.8733 30 19.5652V27.3913C30 28.0832 29.7252 28.7467 29.2359 29.2359C28.7467 29.7252 28.0832 30 27.3913 30H19.5652C18.8733 30 18.2098 29.7252 17.7206 29.2359C17.2314 28.7467 16.9565 28.0832 16.9565 27.3913V19.5652Z" fill="#FF7784"/>
</svg>
