<svg width="20" height="19" viewBox="0 0 20 19" fill="none" xmlns="http://www.w3.org/2000/svg">
<g id="fi-rs-search" clip-path="url(#clip0_456_18043)">
<g id="01 align center">
<path id="Vector" d="M19.8172 17.1134L14.7277 12.4169C16.0498 10.9249 16.6998 9.02098 16.5433 7.09908C16.3868 5.17718 15.4358 3.38431 13.887 2.0913C12.3382 0.798292 10.3101 0.104078 8.2222 0.152252C6.13428 0.200426 4.1463 0.987301 2.66946 2.35012C1.19262 3.71294 0.339907 5.54743 0.287702 7.47414C0.235498 9.40085 0.987795 11.2724 2.38899 12.7016C3.79018 14.1308 5.73306 15.0084 7.81576 15.1528C9.89846 15.2972 11.9616 14.6974 13.5785 13.4774L18.668 18.1739L19.8172 17.1134ZM8.43868 13.6739C7.15271 13.6739 5.89561 13.322 4.82636 12.6627C3.75711 12.0034 2.92373 11.0664 2.43161 9.97001C1.93949 8.87365 1.81073 7.66725 2.06161 6.50337C2.31249 5.33948 2.93174 4.27038 3.84107 3.43127C4.75039 2.59215 5.90894 2.02071 7.1702 1.7892C8.43147 1.55769 9.7388 1.67651 10.9269 2.13063C12.115 2.58476 13.1305 3.35379 13.8449 4.34049C14.5594 5.32718 14.9407 6.48722 14.9407 7.67391C14.9388 9.26466 14.2531 10.7897 13.0342 11.9146C11.8152 13.0394 10.1625 13.6721 8.43868 13.6739Z" fill="#7E7E7E"/>
</g>
</g>
<defs>
<clipPath id="clip0_456_18043">
<rect width="19.506" height="18" fill="white" transform="translate(0.308594 0.173828)"/>
</clipPath>
</defs>
</svg>
